<mxfile host="app.diagrams.net" agent="Mozilla/5.0 (Windows NT 10.0; Win64; x64) AppleWebKit/537.36 (KHTML, like Gecko) Chrome/131.0.0.0 Safari/537.36" version="25.0.3">
  <diagram name="Production BPMN" id="LM1lkfpwHtUmzL5ZuMWx">
    <mxGraphModel dx="1221" dy="1894" grid="1" gridSize="10" guides="1" tooltips="1" connect="1" arrows="1" fold="1" page="1" pageScale="1" pageWidth="827" pageHeight="1169" math="0" shadow="0">
      <root>
        <mxCell id="0" />
        <mxCell id="1" parent="0" />
        <mxCell id="rg5PKnQTJV752whF03__-38" value="Monitor inventory levels" style="rounded=1;whiteSpace=wrap;html=1;" vertex="1" parent="1">
          <mxGeometry x="206" y="-150" width="150" height="60" as="geometry" />
        </mxCell>
        <mxCell id="rg5PKnQTJV752whF03__-39" value="Place procurement order" style="rounded=1;whiteSpace=wrap;html=1;" vertex="1" parent="1">
          <mxGeometry x="536" y="-220" width="140" height="60" as="geometry" />
        </mxCell>
        <mxCell id="rg5PKnQTJV752whF03__-40" value="Update inventory records" style="rounded=1;whiteSpace=wrap;html=1;" vertex="1" parent="1">
          <mxGeometry x="536" y="-60" width="140" height="60" as="geometry" />
        </mxCell>
        <mxCell id="rg5PKnQTJV752whF03__-41" edge="1" parent="1" target="rg5PKnQTJV752whF03__-38">
          <mxGeometry relative="1" as="geometry">
            <mxPoint x="160" y="-120" as="sourcePoint" />
          </mxGeometry>
        </mxCell>
        <mxCell id="rg5PKnQTJV752whF03__-42" style="entryX=0;entryY=0.5;entryDx=0;entryDy=0;entryPerimeter=0;" edge="1" parent="1" source="rg5PKnQTJV752whF03__-38" target="rg5PKnQTJV752whF03__-53">
          <mxGeometry relative="1" as="geometry">
            <mxPoint x="406" y="-120" as="targetPoint" />
          </mxGeometry>
        </mxCell>
        <mxCell id="rg5PKnQTJV752whF03__-44" value="" style="points=[[0.145,0.145,0],[0.5,0,0],[0.855,0.145,0],[1,0.5,0],[0.855,0.855,0],[0.5,1,0],[0.145,0.855,0],[0,0.5,0]];shape=mxgraph.bpmn.event;html=1;verticalLabelPosition=bottom;labelBackgroundColor=#ffffff;verticalAlign=top;align=center;perimeter=ellipsePerimeter;outlineConnect=0;aspect=fixed;outline=standard;symbol=general;" vertex="1" parent="1">
          <mxGeometry x="110" y="-145" width="50" height="50" as="geometry" />
        </mxCell>
        <mxCell id="rg5PKnQTJV752whF03__-45" value="" style="points=[[0.145,0.145,0],[0.5,0,0],[0.855,0.145,0],[1,0.5,0],[0.855,0.855,0],[0.5,1,0],[0.145,0.855,0],[0,0.5,0]];shape=mxgraph.bpmn.event;html=1;verticalLabelPosition=bottom;labelBackgroundColor=#ffffff;verticalAlign=top;align=center;perimeter=ellipsePerimeter;outlineConnect=0;aspect=fixed;outline=end;symbol=terminate2;" vertex="1" parent="1">
          <mxGeometry x="876" y="-145" width="50" height="50" as="geometry" />
        </mxCell>
        <mxCell id="rg5PKnQTJV752whF03__-46" style="edgeStyle=orthogonalEdgeStyle;rounded=0;orthogonalLoop=1;jettySize=auto;html=1;entryX=0;entryY=0.5;entryDx=0;entryDy=0;exitX=0.5;exitY=0;exitDx=0;exitDy=0;exitPerimeter=0;" edge="1" parent="1" source="rg5PKnQTJV752whF03__-53" target="rg5PKnQTJV752whF03__-39">
          <mxGeometry relative="1" as="geometry">
            <mxPoint x="431" y="-145" as="sourcePoint" />
          </mxGeometry>
        </mxCell>
        <mxCell id="rg5PKnQTJV752whF03__-47" style="edgeStyle=orthogonalEdgeStyle;rounded=0;orthogonalLoop=1;jettySize=auto;html=1;entryX=0;entryY=0.5;entryDx=0;entryDy=0;exitX=0.5;exitY=1;exitDx=0;exitDy=0;exitPerimeter=0;" edge="1" parent="1" source="rg5PKnQTJV752whF03__-53" target="rg5PKnQTJV752whF03__-40">
          <mxGeometry relative="1" as="geometry">
            <mxPoint x="430" y="-94" as="sourcePoint" />
          </mxGeometry>
        </mxCell>
        <mxCell id="rg5PKnQTJV752whF03__-49" value="" style="edgeStyle=orthogonalEdgeStyle;rounded=0;orthogonalLoop=1;jettySize=auto;html=1;" edge="1" parent="1" target="rg5PKnQTJV752whF03__-45">
          <mxGeometry relative="1" as="geometry">
            <mxPoint x="806" y="-120" as="sourcePoint" />
          </mxGeometry>
        </mxCell>
        <mxCell id="rg5PKnQTJV752whF03__-51" style="edgeStyle=orthogonalEdgeStyle;rounded=0;orthogonalLoop=1;jettySize=auto;html=1;entryX=0.5;entryY=0;entryDx=0;entryDy=0;entryPerimeter=0;" edge="1" parent="1" source="rg5PKnQTJV752whF03__-39" target="rg5PKnQTJV752whF03__-98">
          <mxGeometry relative="1" as="geometry">
            <mxPoint x="781" y="-145" as="targetPoint" />
          </mxGeometry>
        </mxCell>
        <mxCell id="rg5PKnQTJV752whF03__-52" style="edgeStyle=orthogonalEdgeStyle;rounded=0;orthogonalLoop=1;jettySize=auto;html=1;entryX=0.5;entryY=1;entryDx=0;entryDy=0;entryPerimeter=0;" edge="1" parent="1" source="rg5PKnQTJV752whF03__-40" target="rg5PKnQTJV752whF03__-98">
          <mxGeometry relative="1" as="geometry">
            <mxPoint x="781" y="-95" as="targetPoint" />
          </mxGeometry>
        </mxCell>
        <mxCell id="rg5PKnQTJV752whF03__-53" value="" style="points=[[0.25,0.25,0],[0.5,0,0],[0.75,0.25,0],[1,0.5,0],[0.75,0.75,0],[0.5,1,0],[0.25,0.75,0],[0,0.5,0]];shape=mxgraph.bpmn.gateway2;html=1;verticalLabelPosition=bottom;labelBackgroundColor=#ffffff;verticalAlign=top;align=center;perimeter=rhombusPerimeter;outlineConnect=0;outline=none;symbol=none;gwType=exclusive;" vertex="1" parent="1">
          <mxGeometry x="400" y="-145" width="50" height="50" as="geometry" />
        </mxCell>
        <mxCell id="rg5PKnQTJV752whF03__-98" value="" style="points=[[0.25,0.25,0],[0.5,0,0],[0.75,0.25,0],[1,0.5,0],[0.75,0.75,0],[0.5,1,0],[0.25,0.75,0],[0,0.5,0]];shape=mxgraph.bpmn.gateway2;html=1;verticalLabelPosition=bottom;labelBackgroundColor=#ffffff;verticalAlign=top;align=center;perimeter=rhombusPerimeter;outlineConnect=0;outline=none;symbol=none;gwType=exclusive;" vertex="1" parent="1">
          <mxGeometry x="760" y="-145" width="50" height="50" as="geometry" />
        </mxCell>
        <mxCell id="rg5PKnQTJV752whF03__-99" value="&lt;p class=&quot;MsoNormal&quot;&gt;&lt;span style=&quot;mso-spacerun:&#39;yes&#39;;font-family:Calibri;mso-fareast-font-family:宋体;&lt;br/&gt;mso-bidi-font-family:&#39;Times New Roman&#39;;font-size:10.5000pt;mso-font-kerning:1.0000pt;&quot;&gt;Inventory doesn&#39;t have&lt;/span&gt;&lt;/p&gt;" style="text;html=1;align=center;verticalAlign=middle;whiteSpace=wrap;rounded=0;" vertex="1" parent="1">
          <mxGeometry x="420" y="-220" width="80" height="30" as="geometry" />
        </mxCell>
        <mxCell id="rg5PKnQTJV752whF03__-100" value="&lt;p class=&quot;MsoNormal&quot;&gt;&lt;span style=&quot;mso-spacerun:&#39;yes&#39;;font-family:Calibri;mso-fareast-font-family:宋体;&lt;br/&gt;mso-bidi-font-family:&#39;Times New Roman&#39;;font-size:10.5000pt;mso-font-kerning:1.0000pt;&quot;&gt;Inventory has&lt;/span&gt;&lt;/p&gt;" style="text;html=1;align=center;verticalAlign=middle;whiteSpace=wrap;rounded=0;" vertex="1" parent="1">
          <mxGeometry x="432" y="-30" width="80" height="30" as="geometry" />
        </mxCell>
        <mxCell id="rg5PKnQTJV752whF03__-101" value="" style="edgeStyle=orthogonalEdgeStyle;rounded=0;orthogonalLoop=1;jettySize=auto;html=1;" edge="1" parent="1" source="rg5PKnQTJV752whF03__-102" target="rg5PKnQTJV752whF03__-110">
          <mxGeometry relative="1" as="geometry" />
        </mxCell>
        <mxCell id="rg5PKnQTJV752whF03__-102" value="Analyze order requirements" style="rounded=1;whiteSpace=wrap;html=1;" vertex="1" parent="1">
          <mxGeometry x="205" y="221" width="140" height="60" as="geometry" />
        </mxCell>
        <mxCell id="rg5PKnQTJV752whF03__-103" value="Generate production plan" style="rounded=1;whiteSpace=wrap;html=1;" vertex="1" parent="1">
          <mxGeometry x="495" y="120" width="140" height="60" as="geometry" />
        </mxCell>
        <mxCell id="rg5PKnQTJV752whF03__-104" value="Allocate resources" style="rounded=1;whiteSpace=wrap;html=1;" vertex="1" parent="1">
          <mxGeometry x="495" y="340" width="140" height="60" as="geometry" />
        </mxCell>
        <mxCell id="rg5PKnQTJV752whF03__-105" style="edgeStyle=orthogonalEdgeStyle;rounded=0;orthogonalLoop=1;jettySize=auto;html=1;entryX=0;entryY=0.5;entryDx=0;entryDy=0;" edge="1" parent="1" source="rg5PKnQTJV752whF03__-106">
          <mxGeometry relative="1" as="geometry">
            <mxPoint x="205" y="251" as="targetPoint" />
          </mxGeometry>
        </mxCell>
        <mxCell id="rg5PKnQTJV752whF03__-106" value="" style="points=[[0.145,0.145,0],[0.5,0,0],[0.855,0.145,0],[1,0.5,0],[0.855,0.855,0],[0.5,1,0],[0.145,0.855,0],[0,0.5,0]];shape=mxgraph.bpmn.event;html=1;verticalLabelPosition=bottom;labelBackgroundColor=#ffffff;verticalAlign=top;align=center;perimeter=ellipsePerimeter;outlineConnect=0;aspect=fixed;outline=standard;symbol=general;" vertex="1" parent="1">
          <mxGeometry x="95" y="226" width="50" height="50" as="geometry" />
        </mxCell>
        <mxCell id="rg5PKnQTJV752whF03__-107" value="" style="points=[[0.145,0.145,0],[0.5,0,0],[0.855,0.145,0],[1,0.5,0],[0.855,0.855,0],[0.5,1,0],[0.145,0.855,0],[0,0.5,0]];shape=mxgraph.bpmn.event;html=1;verticalLabelPosition=bottom;labelBackgroundColor=#ffffff;verticalAlign=top;align=center;perimeter=ellipsePerimeter;outlineConnect=0;aspect=fixed;outline=end;symbol=terminate2;" vertex="1" parent="1">
          <mxGeometry x="795" y="226" width="50" height="50" as="geometry" />
        </mxCell>
        <mxCell id="rg5PKnQTJV752whF03__-108" style="edgeStyle=orthogonalEdgeStyle;rounded=0;orthogonalLoop=1;jettySize=auto;html=1;entryX=0;entryY=0.5;entryDx=0;entryDy=0;exitX=0.5;exitY=1;exitDx=0;exitDy=0;exitPerimeter=0;" edge="1" parent="1" source="rg5PKnQTJV752whF03__-110" target="rg5PKnQTJV752whF03__-104">
          <mxGeometry relative="1" as="geometry" />
        </mxCell>
        <mxCell id="rg5PKnQTJV752whF03__-109" style="edgeStyle=orthogonalEdgeStyle;rounded=0;orthogonalLoop=1;jettySize=auto;html=1;entryX=0;entryY=0.5;entryDx=0;entryDy=0;exitX=0.5;exitY=0;exitDx=0;exitDy=0;exitPerimeter=0;" edge="1" parent="1" source="rg5PKnQTJV752whF03__-110" target="rg5PKnQTJV752whF03__-103">
          <mxGeometry relative="1" as="geometry" />
        </mxCell>
        <mxCell id="rg5PKnQTJV752whF03__-110" value="" style="points=[[0.25,0.25,0],[0.5,0,0],[0.75,0.25,0],[1,0.5,0],[0.75,0.75,0],[0.5,1,0],[0.25,0.75,0],[0,0.5,0]];shape=mxgraph.bpmn.gateway2;html=1;verticalLabelPosition=bottom;labelBackgroundColor=#ffffff;verticalAlign=top;align=center;perimeter=rhombusPerimeter;outlineConnect=0;outline=none;symbol=none;gwType=parallel;" vertex="1" parent="1">
          <mxGeometry x="385" y="226" width="50" height="50" as="geometry" />
        </mxCell>
        <mxCell id="rg5PKnQTJV752whF03__-111" value="" style="edgeStyle=orthogonalEdgeStyle;rounded=0;orthogonalLoop=1;jettySize=auto;html=1;" edge="1" parent="1" source="rg5PKnQTJV752whF03__-112" target="rg5PKnQTJV752whF03__-107">
          <mxGeometry relative="1" as="geometry" />
        </mxCell>
        <mxCell id="rg5PKnQTJV752whF03__-112" value="" style="points=[[0.25,0.25,0],[0.5,0,0],[0.75,0.25,0],[1,0.5,0],[0.75,0.75,0],[0.5,1,0],[0.25,0.75,0],[0,0.5,0]];shape=mxgraph.bpmn.gateway2;html=1;verticalLabelPosition=bottom;labelBackgroundColor=#ffffff;verticalAlign=top;align=center;perimeter=rhombusPerimeter;outlineConnect=0;outline=none;symbol=none;gwType=parallel;" vertex="1" parent="1">
          <mxGeometry x="685" y="226" width="50" height="50" as="geometry" />
        </mxCell>
        <mxCell id="rg5PKnQTJV752whF03__-113" style="edgeStyle=orthogonalEdgeStyle;rounded=0;orthogonalLoop=1;jettySize=auto;html=1;entryX=0.5;entryY=0;entryDx=0;entryDy=0;entryPerimeter=0;" edge="1" parent="1" source="rg5PKnQTJV752whF03__-103" target="rg5PKnQTJV752whF03__-112">
          <mxGeometry relative="1" as="geometry" />
        </mxCell>
        <mxCell id="rg5PKnQTJV752whF03__-114" style="edgeStyle=orthogonalEdgeStyle;rounded=0;orthogonalLoop=1;jettySize=auto;html=1;entryX=0.5;entryY=1;entryDx=0;entryDy=0;entryPerimeter=0;" edge="1" parent="1" source="rg5PKnQTJV752whF03__-104" target="rg5PKnQTJV752whF03__-112">
          <mxGeometry relative="1" as="geometry" />
        </mxCell>
        <mxCell id="rg5PKnQTJV752whF03__-129" value="" style="edgeStyle=orthogonalEdgeStyle;rounded=0;orthogonalLoop=1;jettySize=auto;html=1;" edge="1" parent="1" source="rg5PKnQTJV752whF03__-130" target="rg5PKnQTJV752whF03__-138">
          <mxGeometry relative="1" as="geometry" />
        </mxCell>
        <mxCell id="rg5PKnQTJV752whF03__-130" value="Prepare products for delivery" style="rounded=1;whiteSpace=wrap;html=1;" vertex="1" parent="1">
          <mxGeometry x="222" y="601" width="140" height="60" as="geometry" />
        </mxCell>
        <mxCell id="rg5PKnQTJV752whF03__-131" value="Synchronize delivery-related data" style="rounded=1;whiteSpace=wrap;html=1;" vertex="1" parent="1">
          <mxGeometry x="512" y="500" width="140" height="60" as="geometry" />
        </mxCell>
        <mxCell id="rg5PKnQTJV752whF03__-132" value="Handle delays" style="rounded=1;whiteSpace=wrap;html=1;" vertex="1" parent="1">
          <mxGeometry x="512" y="720" width="140" height="60" as="geometry" />
        </mxCell>
        <mxCell id="rg5PKnQTJV752whF03__-133" style="edgeStyle=orthogonalEdgeStyle;rounded=0;orthogonalLoop=1;jettySize=auto;html=1;entryX=0;entryY=0.5;entryDx=0;entryDy=0;" edge="1" parent="1" source="rg5PKnQTJV752whF03__-134">
          <mxGeometry relative="1" as="geometry">
            <mxPoint x="222" y="631" as="targetPoint" />
          </mxGeometry>
        </mxCell>
        <mxCell id="rg5PKnQTJV752whF03__-134" value="" style="points=[[0.145,0.145,0],[0.5,0,0],[0.855,0.145,0],[1,0.5,0],[0.855,0.855,0],[0.5,1,0],[0.145,0.855,0],[0,0.5,0]];shape=mxgraph.bpmn.event;html=1;verticalLabelPosition=bottom;labelBackgroundColor=#ffffff;verticalAlign=top;align=center;perimeter=ellipsePerimeter;outlineConnect=0;aspect=fixed;outline=standard;symbol=general;" vertex="1" parent="1">
          <mxGeometry x="112" y="606" width="50" height="50" as="geometry" />
        </mxCell>
        <mxCell id="rg5PKnQTJV752whF03__-135" value="" style="points=[[0.145,0.145,0],[0.5,0,0],[0.855,0.145,0],[1,0.5,0],[0.855,0.855,0],[0.5,1,0],[0.145,0.855,0],[0,0.5,0]];shape=mxgraph.bpmn.event;html=1;verticalLabelPosition=bottom;labelBackgroundColor=#ffffff;verticalAlign=top;align=center;perimeter=ellipsePerimeter;outlineConnect=0;aspect=fixed;outline=end;symbol=terminate2;" vertex="1" parent="1">
          <mxGeometry x="812" y="606" width="50" height="50" as="geometry" />
        </mxCell>
        <mxCell id="rg5PKnQTJV752whF03__-136" style="edgeStyle=orthogonalEdgeStyle;rounded=0;orthogonalLoop=1;jettySize=auto;html=1;entryX=0;entryY=0.5;entryDx=0;entryDy=0;exitX=0.5;exitY=1;exitDx=0;exitDy=0;exitPerimeter=0;" edge="1" parent="1" source="rg5PKnQTJV752whF03__-138" target="rg5PKnQTJV752whF03__-132">
          <mxGeometry relative="1" as="geometry" />
        </mxCell>
        <mxCell id="rg5PKnQTJV752whF03__-137" style="edgeStyle=orthogonalEdgeStyle;rounded=0;orthogonalLoop=1;jettySize=auto;html=1;entryX=0;entryY=0.5;entryDx=0;entryDy=0;exitX=0.5;exitY=0;exitDx=0;exitDy=0;exitPerimeter=0;" edge="1" parent="1" source="rg5PKnQTJV752whF03__-138" target="rg5PKnQTJV752whF03__-131">
          <mxGeometry relative="1" as="geometry" />
        </mxCell>
        <mxCell id="rg5PKnQTJV752whF03__-138" value="" style="points=[[0.25,0.25,0],[0.5,0,0],[0.75,0.25,0],[1,0.5,0],[0.75,0.75,0],[0.5,1,0],[0.25,0.75,0],[0,0.5,0]];shape=mxgraph.bpmn.gateway2;html=1;verticalLabelPosition=bottom;labelBackgroundColor=#ffffff;verticalAlign=top;align=center;perimeter=rhombusPerimeter;outlineConnect=0;outline=none;symbol=none;gwType=parallel;" vertex="1" parent="1">
          <mxGeometry x="402" y="606" width="50" height="50" as="geometry" />
        </mxCell>
        <mxCell id="rg5PKnQTJV752whF03__-139" value="" style="edgeStyle=orthogonalEdgeStyle;rounded=0;orthogonalLoop=1;jettySize=auto;html=1;" edge="1" parent="1" source="rg5PKnQTJV752whF03__-140" target="rg5PKnQTJV752whF03__-135">
          <mxGeometry relative="1" as="geometry" />
        </mxCell>
        <mxCell id="rg5PKnQTJV752whF03__-140" value="" style="points=[[0.25,0.25,0],[0.5,0,0],[0.75,0.25,0],[1,0.5,0],[0.75,0.75,0],[0.5,1,0],[0.25,0.75,0],[0,0.5,0]];shape=mxgraph.bpmn.gateway2;html=1;verticalLabelPosition=bottom;labelBackgroundColor=#ffffff;verticalAlign=top;align=center;perimeter=rhombusPerimeter;outlineConnect=0;outline=none;symbol=none;gwType=parallel;" vertex="1" parent="1">
          <mxGeometry x="702" y="606" width="50" height="50" as="geometry" />
        </mxCell>
        <mxCell id="rg5PKnQTJV752whF03__-141" style="edgeStyle=orthogonalEdgeStyle;rounded=0;orthogonalLoop=1;jettySize=auto;html=1;entryX=0.5;entryY=0;entryDx=0;entryDy=0;entryPerimeter=0;" edge="1" parent="1" source="rg5PKnQTJV752whF03__-131" target="rg5PKnQTJV752whF03__-140">
          <mxGeometry relative="1" as="geometry" />
        </mxCell>
        <mxCell id="rg5PKnQTJV752whF03__-142" style="edgeStyle=orthogonalEdgeStyle;rounded=0;orthogonalLoop=1;jettySize=auto;html=1;entryX=0.5;entryY=1;entryDx=0;entryDy=0;entryPerimeter=0;" edge="1" parent="1" source="rg5PKnQTJV752whF03__-132" target="rg5PKnQTJV752whF03__-140">
          <mxGeometry relative="1" as="geometry" />
        </mxCell>
      </root>
    </mxGraphModel>
  </diagram>
</mxfile>
